<svg xmlns="http://www.w3.org/2000/svg" xmlns:xlink="http://www.w3.org/1999/xlink" width="500" zoomAndPan="magnify" viewBox="0 0 375 374.999991" height="500" preserveAspectRatio="xMidYMid meet" version="1.0"><defs><g/><clipPath id="5651b1ce1a"><path d="M 187.5 0 C 83.945312 0 0 83.945312 0 187.5 C 0 291.054688 83.945312 375 187.5 375 C 291.054688 375 375 291.054688 375 187.5 C 375 83.945312 291.054688 0 187.5 0 Z M 187.5 0 " clip-rule="nonzero"/></clipPath><clipPath id="09c7ab44a2"><path d="M 119 132 L 222 132 L 222 268 L 119 268 Z M 119 132 " clip-rule="nonzero"/></clipPath><clipPath id="7ee50b20bd"><path d="M 189.96875 132.0625 L 221.1875 150.90625 L 150.632812 267.8125 L 119.414062 248.96875 Z M 189.96875 132.0625 " clip-rule="nonzero"/></clipPath><clipPath id="1fdb26b0aa"><path d="M 122 150 L 192 150 L 192 220 L 122 220 Z M 122 150 " clip-rule="nonzero"/></clipPath><clipPath id="ac1cd65af6"><path d="M 148.824219 150.683594 L 191.367188 176.359375 L 165.210938 219.703125 L 122.664062 194.027344 Z M 148.824219 150.683594 " clip-rule="nonzero"/></clipPath><clipPath id="4f8a033717"><path d="M 172 155 L 239 155 L 239 220 L 172 220 Z M 172 155 " clip-rule="nonzero"/></clipPath><clipPath id="7fd60acb43"><path d="M 195.796875 155.308594 L 238.339844 180.984375 L 214.972656 219.703125 L 172.429688 194.027344 Z M 195.796875 155.308594 " clip-rule="nonzero"/></clipPath></defs><g clip-path="url(#5651b1ce1a)"><rect x="-37.5" width="450" fill="#ffffff" y="-37.499999" height="449.999989" fill-opacity="1"/></g><g fill="#3d3b3a" fill-opacity="1"><g transform="translate(70.929615, 197.539364)"><g><path d="M 144.1875 -2.5 C 144.738281 -2.5 145.015625 -2.082031 145.015625 -1.25 C 145.015625 -0.414062 144.738281 0 144.1875 0 C 141.695312 0 137.679688 -0.140625 132.140625 -0.421875 C 126.878906 -0.691406 123 -0.828125 120.5 -0.828125 C 117.59375 -0.828125 113.785156 -0.691406 109.078125 -0.421875 C 104.640625 -0.140625 101.316406 0 99.109375 0 C 98.546875 0 98.265625 -0.414062 98.265625 -1.25 C 98.265625 -2.082031 98.546875 -2.5 99.109375 -2.5 C 104.785156 -2.5 108.867188 -3.015625 111.359375 -4.046875 C 113.859375 -5.085938 115.109375 -6.851562 115.109375 -9.34375 C 115.109375 -11.289062 114.34375 -13.992188 112.8125 -17.453125 L 93.28125 -59.625 L 43.84375 -59.625 L 29.703125 -25.5625 C 27.765625 -20.84375 26.796875 -16.960938 26.796875 -13.921875 C 26.796875 -9.898438 28.457031 -6.988281 31.78125 -5.1875 C 35.113281 -3.394531 40.3125 -2.5 47.375 -2.5 C 48.0625 -2.5 48.40625 -2.082031 48.40625 -1.25 C 48.40625 -0.414062 48.0625 0 47.375 0 C 44.875 0 41.269531 -0.140625 36.5625 -0.421875 C 31.300781 -0.691406 26.734375 -0.828125 22.859375 -0.828125 C 19.390625 -0.828125 15.300781 -0.691406 10.59375 -0.421875 C 6.4375 -0.140625 3.046875 0 0.421875 0 C -0.273438 0 -0.625 -0.414062 -0.625 -1.25 C -0.625 -2.082031 -0.273438 -2.5 0.421875 -2.5 C 4.296875 -2.5 7.582031 -3.191406 10.28125 -4.578125 C 12.976562 -5.960938 15.539062 -8.453125 17.96875 -12.046875 C 20.394531 -15.648438 22.992188 -20.773438 25.765625 -27.421875 L 69.1875 -131.9375 C 69.457031 -132.34375 69.90625 -132.546875 70.53125 -132.546875 C 71.15625 -132.546875 71.535156 -132.34375 71.671875 -131.9375 L 119.875 -28.46875 C 123.0625 -21.40625 125.898438 -16.035156 128.390625 -12.359375 C 130.890625 -8.691406 133.347656 -6.128906 135.765625 -4.671875 C 138.191406 -3.222656 141 -2.5 144.1875 -2.5 Z M 45.5 -63.375 L 91.421875 -63.375 L 67.109375 -115.515625 Z M 45.5 -63.375 "/></g></g></g><g fill="#3d3b3a" fill-opacity="1"><g transform="translate(141.920118, 298.998272)"><g><path d="M 149.59375 -2.5 C 150.007812 -2.5 150.21875 -2.082031 150.21875 -1.25 C 150.21875 -0.414062 150.007812 0 149.59375 0 C 145.300781 0 141.976562 -0.0664062 139.625 -0.203125 L 125.703125 -0.421875 L 111.359375 -0.203125 C 109.003906 -0.0664062 105.75 0 101.59375 0 C 101.175781 0 100.96875 -0.414062 100.96875 -1.25 C 100.96875 -2.082031 101.175781 -2.5 101.59375 -2.5 C 107.132812 -2.5 111.148438 -2.84375 113.640625 -3.53125 C 116.140625 -4.226562 117.835938 -5.546875 118.734375 -7.484375 C 119.640625 -9.421875 120.09375 -12.535156 120.09375 -16.828125 L 120.09375 -65.65625 L 37.1875 -65.65625 L 37.1875 -16.828125 C 37.1875 -12.535156 37.632812 -9.421875 38.53125 -7.484375 C 39.4375 -5.546875 41.132812 -4.226562 43.625 -3.53125 C 46.125 -2.84375 50.144531 -2.5 55.6875 -2.5 C 55.957031 -2.5 56.09375 -2.082031 56.09375 -1.25 C 56.09375 -0.414062 55.957031 0 55.6875 0 C 51.53125 0 48.203125 -0.0664062 45.703125 -0.203125 L 31.578125 -0.421875 L 17.875 -0.203125 C 15.375 -0.0664062 11.910156 0 7.484375 0 C 7.203125 0 7.0625 -0.414062 7.0625 -1.25 C 7.0625 -2.082031 7.203125 -2.5 7.484375 -2.5 C 12.878906 -2.5 16.859375 -2.84375 19.421875 -3.53125 C 21.984375 -4.226562 23.75 -5.578125 24.71875 -7.578125 C 25.6875 -9.585938 26.171875 -12.671875 26.171875 -16.828125 L 26.171875 -113.03125 C 26.171875 -117.175781 25.722656 -120.21875 24.828125 -122.15625 C 23.929688 -124.101562 22.203125 -125.457031 19.640625 -126.21875 C 17.078125 -126.976562 13.09375 -127.359375 7.6875 -127.359375 C 7.40625 -127.359375 7.265625 -127.773438 7.265625 -128.609375 C 7.265625 -129.441406 7.40625 -129.859375 7.6875 -129.859375 L 17.875 -129.640625 C 23.6875 -129.367188 28.253906 -129.234375 31.578125 -129.234375 C 35.316406 -129.234375 40.097656 -129.367188 45.921875 -129.640625 L 55.6875 -129.859375 C 55.957031 -129.859375 56.09375 -129.441406 56.09375 -128.609375 C 56.09375 -127.773438 55.957031 -127.359375 55.6875 -127.359375 C 50.28125 -127.359375 46.296875 -126.941406 43.734375 -126.109375 C 41.171875 -125.273438 39.4375 -123.851562 38.53125 -121.84375 C 37.632812 -119.84375 37.1875 -116.765625 37.1875 -112.609375 L 37.1875 -69.59375 L 120.09375 -69.59375 L 120.09375 -112.609375 C 120.09375 -116.765625 119.640625 -119.84375 118.734375 -121.84375 C 117.835938 -123.851562 116.109375 -125.273438 113.546875 -126.109375 C 110.984375 -126.941406 107 -127.359375 101.59375 -127.359375 C 101.175781 -127.359375 100.96875 -127.773438 100.96875 -128.609375 C 100.96875 -129.441406 101.175781 -129.859375 101.59375 -129.859375 L 111.359375 -129.640625 C 117.179688 -129.367188 121.960938 -129.234375 125.703125 -129.234375 C 129.160156 -129.234375 133.800781 -129.367188 139.625 -129.640625 L 149.59375 -129.859375 C 150.007812 -129.859375 150.21875 -129.441406 150.21875 -128.609375 C 150.21875 -127.773438 150.007812 -127.359375 149.59375 -127.359375 C 144.1875 -127.359375 140.203125 -126.976562 137.640625 -126.21875 C 135.078125 -125.457031 133.3125 -124.101562 132.34375 -122.15625 C 131.375 -120.21875 130.890625 -117.175781 130.890625 -113.03125 L 130.890625 -16.828125 C 130.890625 -12.671875 131.375 -9.585938 132.34375 -7.578125 C 133.3125 -5.578125 135.078125 -4.226562 137.640625 -3.53125 C 140.203125 -2.84375 144.1875 -2.5 149.59375 -2.5 Z M 149.59375 -2.5 "/></g></g></g><g clip-path="url(#09c7ab44a2)"><g clip-path="url(#7ee50b20bd)"><path fill="#ffffff" d="M 189.96875 132.0625 L 221.1875 150.90625 L 150.601562 267.863281 L 119.382812 249.019531 Z M 189.96875 132.0625 " fill-opacity="1" fill-rule="nonzero"/></g></g><g clip-path="url(#1fdb26b0aa)"><g clip-path="url(#ac1cd65af6)"><path fill="#ffffff" d="M 148.824219 150.683594 L 191.367188 176.359375 L 165.191406 219.734375 L 122.648438 194.058594 Z M 148.824219 150.683594 " fill-opacity="1" fill-rule="nonzero"/></g></g><g clip-path="url(#4f8a033717)"><g clip-path="url(#7fd60acb43)"><path fill="#ffffff" d="M 195.796875 155.308594 L 238.296875 180.957031 L 214.929688 219.679688 L 172.429688 194.027344 Z M 195.796875 155.308594 " fill-opacity="1" fill-rule="nonzero"/></g></g><path stroke-linecap="butt" transform="matrix(1.114514, -1.586897, 1.586897, 1.114514, 106.482067, 283.297481)" fill="none" stroke-linejoin="miter" d="M 0.00117593 1.000024 L 116.887659 0.998686 " stroke="#3d3b3a" stroke-width="2" stroke-opacity="1" stroke-miterlimit="4"/></svg>