<svg xmlns="http://www.w3.org/2000/svg" xmlns:xlink="http://www.w3.org/1999/xlink" width="500" zoomAndPan="magnify" viewBox="0 0 375 374.999991" height="500" preserveAspectRatio="xMidYMid meet" version="1.0"><defs><g/><clipPath id="2f0af79565"><path d="M 0.703125 1.40625 L 374.296875 1.40625 L 374.296875 375 L 0.703125 375 Z M 0.703125 1.40625 " clip-rule="nonzero"/></clipPath><clipPath id="cb3e2cd034"><path d="M 187.5 1.40625 C 84.335938 1.40625 0.703125 85.039062 0.703125 188.203125 C 0.703125 291.367188 84.335938 375 187.5 375 C 290.664062 375 374.296875 291.367188 374.296875 188.203125 C 374.296875 85.039062 290.664062 1.40625 187.5 1.40625 Z M 187.5 1.40625 " clip-rule="nonzero"/></clipPath><clipPath id="bb4729a1ae"><path d="M 112 130 L 219 130 L 219 273 L 112 273 Z M 112 130 " clip-rule="nonzero"/></clipPath><clipPath id="72c4a8bd11"><path d="M 186.023438 130.148438 L 218.71875 149.878906 L 144.832031 272.308594 L 112.132812 252.578125 Z M 186.023438 130.148438 " clip-rule="nonzero"/></clipPath><clipPath id="2650649d51"><path d="M 115 149 L 188 149 L 188 222 L 115 222 Z M 115 149 " clip-rule="nonzero"/></clipPath><clipPath id="180bdde9b6"><path d="M 142.9375 149.648438 L 187.492188 176.535156 L 160.09375 221.929688 L 115.542969 195.039062 Z M 142.9375 149.648438 " clip-rule="nonzero"/></clipPath><clipPath id="d7d2f3aaf5"><path d="M 167 154 L 237 154 L 237 222 L 167 222 Z M 167 154 " clip-rule="nonzero"/></clipPath><clipPath id="5959c48c34"><path d="M 192.125 154.492188 L 236.679688 181.378906 L 212.207031 221.929688 L 167.65625 195.039062 Z M 192.125 154.492188 " clip-rule="nonzero"/></clipPath></defs><g clip-path="url(#2f0af79565)"><g clip-path="url(#cb3e2cd034)"><path fill="#000000" d="M 0.703125 1.40625 L 374.296875 1.40625 L 374.296875 375 L 0.703125 375 Z M 0.703125 1.40625 " fill-opacity="1" fill-rule="nonzero"/></g></g><g fill="#ffffff" fill-opacity="1"><g transform="translate(61.360993, 198.717325)"><g><path d="M 151 -2.609375 C 151.582031 -2.609375 151.875 -2.171875 151.875 -1.296875 C 151.875 -0.429688 151.582031 0 151 0 C 148.382812 0 144.175781 -0.144531 138.375 -0.4375 C 132.863281 -0.726562 128.804688 -0.875 126.203125 -0.875 C 123.148438 -0.875 119.160156 -0.726562 114.234375 -0.4375 C 109.585938 -0.144531 106.101562 0 103.78125 0 C 103.207031 0 102.921875 -0.429688 102.921875 -1.296875 C 102.921875 -2.171875 103.207031 -2.609375 103.78125 -2.609375 C 109.726562 -2.609375 114.003906 -3.148438 116.609375 -4.234375 C 119.222656 -5.328125 120.53125 -7.179688 120.53125 -9.796875 C 120.53125 -11.828125 119.734375 -14.65625 118.140625 -18.28125 L 97.6875 -62.4375 L 45.90625 -62.4375 L 31.109375 -26.765625 C 29.078125 -21.828125 28.0625 -17.765625 28.0625 -14.578125 C 28.0625 -10.367188 29.800781 -7.320312 33.28125 -5.4375 C 36.769531 -3.550781 42.210938 -2.609375 49.609375 -2.609375 C 50.335938 -2.609375 50.703125 -2.171875 50.703125 -1.296875 C 50.703125 -0.429688 50.335938 0 49.609375 0 C 46.992188 0 43.222656 -0.144531 38.296875 -0.4375 C 32.785156 -0.726562 28 -0.875 23.9375 -0.875 C 20.3125 -0.875 16.03125 -0.726562 11.09375 -0.4375 C 6.738281 -0.144531 3.1875 0 0.4375 0 C -0.289062 0 -0.65625 -0.429688 -0.65625 -1.296875 C -0.65625 -2.171875 -0.289062 -2.609375 0.4375 -2.609375 C 4.5 -2.609375 7.941406 -3.332031 10.765625 -4.78125 C 13.597656 -6.238281 16.28125 -8.851562 18.8125 -12.625 C 21.351562 -16.394531 24.078125 -21.757812 26.984375 -28.71875 L 72.453125 -138.15625 C 72.742188 -138.59375 73.210938 -138.8125 73.859375 -138.8125 C 74.515625 -138.8125 74.914062 -138.59375 75.0625 -138.15625 L 125.546875 -29.8125 C 128.878906 -22.414062 131.847656 -16.796875 134.453125 -12.953125 C 137.066406 -9.109375 139.644531 -6.421875 142.1875 -4.890625 C 144.726562 -3.367188 147.664062 -2.609375 151 -2.609375 Z M 47.65625 -66.359375 L 95.734375 -66.359375 L 70.28125 -120.96875 Z M 47.65625 -66.359375 "/></g></g></g><g fill="#ffffff" fill-opacity="1"><g transform="translate(135.705272, 304.969397)"><g><path d="M 156.65625 -2.609375 C 157.09375 -2.609375 157.3125 -2.171875 157.3125 -1.296875 C 157.3125 -0.429688 157.09375 0 156.65625 0 C 152.15625 0 148.675781 -0.0703125 146.21875 -0.21875 L 131.640625 -0.4375 L 116.625 -0.21875 C 114.15625 -0.0703125 110.742188 0 106.390625 0 C 105.960938 0 105.75 -0.429688 105.75 -1.296875 C 105.75 -2.171875 105.960938 -2.609375 106.390625 -2.609375 C 112.191406 -2.609375 116.398438 -2.96875 119.015625 -3.6875 C 121.628906 -4.414062 123.40625 -5.796875 124.34375 -7.828125 C 125.289062 -9.859375 125.765625 -13.125 125.765625 -17.625 L 125.765625 -68.75 L 38.953125 -68.75 L 38.953125 -17.625 C 38.953125 -13.125 39.421875 -9.859375 40.359375 -7.828125 C 41.304688 -5.796875 43.082031 -4.414062 45.6875 -3.6875 C 48.300781 -2.96875 52.507812 -2.609375 58.3125 -2.609375 C 58.601562 -2.609375 58.75 -2.171875 58.75 -1.296875 C 58.75 -0.429688 58.601562 0 58.3125 0 C 53.957031 0 50.476562 -0.0703125 47.875 -0.21875 L 33.078125 -0.4375 L 18.71875 -0.21875 C 16.101562 -0.0703125 12.472656 0 7.828125 0 C 7.535156 0 7.390625 -0.429688 7.390625 -1.296875 C 7.390625 -2.171875 7.535156 -2.609375 7.828125 -2.609375 C 13.484375 -2.609375 17.65625 -2.96875 20.34375 -3.6875 C 23.03125 -4.414062 24.878906 -5.832031 25.890625 -7.9375 C 26.910156 -10.039062 27.421875 -13.269531 27.421875 -17.625 L 27.421875 -118.359375 C 27.421875 -122.710938 26.945312 -125.90625 26 -127.9375 C 25.0625 -129.96875 23.25 -131.378906 20.5625 -132.171875 C 17.875 -132.972656 13.703125 -133.375 8.046875 -133.375 C 7.753906 -133.375 7.609375 -133.804688 7.609375 -134.671875 C 7.609375 -135.546875 7.753906 -135.984375 8.046875 -135.984375 L 18.71875 -135.765625 C 24.800781 -135.472656 29.585938 -135.328125 33.078125 -135.328125 C 36.992188 -135.328125 41.992188 -135.472656 48.078125 -135.765625 L 58.3125 -135.984375 C 58.601562 -135.984375 58.75 -135.546875 58.75 -134.671875 C 58.75 -133.804688 58.601562 -133.375 58.3125 -133.375 C 52.65625 -133.375 48.484375 -132.9375 45.796875 -132.0625 C 43.117188 -131.195312 41.304688 -129.710938 40.359375 -127.609375 C 39.421875 -125.503906 38.953125 -122.273438 38.953125 -117.921875 L 38.953125 -72.890625 L 125.765625 -72.890625 L 125.765625 -117.921875 C 125.765625 -122.273438 125.289062 -125.503906 124.34375 -127.609375 C 123.40625 -129.710938 121.59375 -131.195312 118.90625 -132.0625 C 116.21875 -132.9375 112.046875 -133.375 106.390625 -133.375 C 105.960938 -133.375 105.75 -133.804688 105.75 -134.671875 C 105.75 -135.546875 105.960938 -135.984375 106.390625 -135.984375 L 116.625 -135.765625 C 122.71875 -135.472656 127.722656 -135.328125 131.640625 -135.328125 C 135.265625 -135.328125 140.125 -135.472656 146.21875 -135.765625 L 156.65625 -135.984375 C 157.09375 -135.984375 157.3125 -135.546875 157.3125 -134.671875 C 157.3125 -133.804688 157.09375 -133.375 156.65625 -133.375 C 151 -133.375 146.828125 -132.972656 144.140625 -132.171875 C 141.460938 -131.378906 139.613281 -129.96875 138.59375 -127.9375 C 137.582031 -125.90625 137.078125 -122.710938 137.078125 -118.359375 L 137.078125 -17.625 C 137.078125 -13.269531 137.582031 -10.039062 138.59375 -7.9375 C 139.613281 -5.832031 141.460938 -4.414062 144.140625 -3.6875 C 146.828125 -2.96875 151 -2.609375 156.65625 -2.609375 Z M 156.65625 -2.609375 "/></g></g></g><g clip-path="url(#bb4729a1ae)"><g clip-path="url(#72c4a8bd11)"><path fill="#000000" d="M 186.023438 130.148438 L 218.71875 149.878906 L 144.796875 272.363281 L 112.101562 252.632812 Z M 186.023438 130.148438 " fill-opacity="1" fill-rule="nonzero"/></g></g><g clip-path="url(#2650649d51)"><g clip-path="url(#180bdde9b6)"><path fill="#000000" d="M 142.9375 149.648438 L 187.492188 176.535156 L 160.078125 221.957031 L 115.523438 195.070312 Z M 142.9375 149.648438 " fill-opacity="1" fill-rule="nonzero"/></g></g><g clip-path="url(#d7d2f3aaf5)"><g clip-path="url(#5959c48c34)"><path fill="#000000" d="M 192.125 154.492188 L 236.636719 181.351562 L 212.164062 221.902344 L 167.65625 195.039062 Z M 192.125 154.492188 " fill-opacity="1" fill-rule="nonzero"/></g></g><path stroke-linecap="butt" transform="matrix(1.167167, -1.661865, 1.661865, 1.167167, 98.59302, 288.526884)" fill="none" stroke-linejoin="miter" d="M -0.000785652 0.999962 L 116.888473 1.000233 " stroke="#ffffff" stroke-width="2" stroke-opacity="1" stroke-miterlimit="4"/></svg>