<svg xmlns="http://www.w3.org/2000/svg" xmlns:xlink="http://www.w3.org/1999/xlink" width="400" zoomAndPan="magnify" viewBox="0 0 300 74.999997" height="100" preserveAspectRatio="xMidYMid meet" version="1.0"><defs><g/></defs><g fill="#ffffff" fill-opacity="1"><g transform="translate(62.866669, 26.15)"><g><path d="M 19.625 -2.21875 L 11.46875 -21.40625 C 11.15625 -22.15625 10.75 -22.4375 9.984375 -22.4375 L 8.15625 -22.4375 C 7.84375 -22.4375 7.71875 -22.28125 7.71875 -22.09375 L 7.71875 -22 C 7.71875 -21.5 9.078125 -21.078125 8.6875 -20.140625 L 1.671875 -2.21875 C 1.234375 -1.015625 0.1875 -1.046875 0.1875 -0.4375 L 0.1875 -0.375 C 0.1875 -0.125 0.40625 0 0.828125 0 L 3.828125 0 C 4.234375 0 4.484375 -0.125 4.484375 -0.375 L 4.484375 -0.4375 C 4.484375 -1.046875 2.96875 -1.109375 3.40625 -2.21875 L 4.796875 -5.9375 L 15.046875 -5.9375 L 16.5625 -2.21875 C 16.96875 -1.109375 15.484375 -1.046875 15.484375 -0.4375 L 15.484375 -0.375 C 15.484375 -0.125 15.703125 0 16.09375 0 L 20.546875 0 C 20.921875 0 21.140625 -0.125 21.140625 -0.375 L 21.140625 -0.4375 C 21.140625 -1.046875 20.140625 -1.046875 19.625 -2.21875 Z M 5.34375 -7.296875 L 9.765625 -19.03125 L 14.515625 -7.296875 Z M 5.34375 -7.296875 "/></g></g></g><g fill="#ffffff" fill-opacity="1"><g transform="translate(96.658172, 26.15)"><g><path d="M 19.953125 -22.4375 L 16.84375 -22.4375 C 16.46875 -22.4375 16.28125 -22.3125 16.28125 -22.0625 L 16.28125 -22 C 16.28125 -21.40625 18.015625 -21.375 17.359375 -20.234375 L 11.1875 -10.078125 L 5.03125 -20.234375 C 4.421875 -21.265625 6 -21.40625 6 -22 L 6 -22.0625 C 6 -22.3125 5.78125 -22.4375 5.375 -22.4375 L 0.765625 -22.4375 C 0.375 -22.4375 0.125 -22.3125 0.125 -22.0625 L 0.125 -22 C 0.125 -21.40625 1.171875 -21.34375 1.859375 -20.234375 L 9.203125 -8.875 L 9.203125 -2.21875 C 9.203125 -1.078125 8.0625 -1.046875 8.0625 -0.4375 L 8.0625 -0.375 C 8.0625 -0.125 8.28125 0 8.6875 0 L 12.671875 0 C 13.046875 0 13.28125 -0.125 13.28125 -0.375 L 13.28125 -0.4375 C 13.28125 -1.046875 12.078125 -1.078125 12.078125 -2.21875 L 12.078125 -9.078125 L 18.90625 -20.234375 C 19.625 -21.5 20.578125 -21.40625 20.578125 -22 L 20.578125 -22.09375 C 20.578125 -22.3125 20.359375 -22.4375 19.953125 -22.4375 Z M 19.953125 -22.4375 "/></g></g></g><g fill="#ffffff" fill-opacity="1"><g transform="translate(130.165231, 26.15)"><g><path d="M 7.515625 0 L 11.46875 0 C 11.890625 0 12.140625 -0.125 12.140625 -0.375 L 12.140625 -0.4375 C 12.140625 -1.046875 10.90625 -1.078125 10.90625 -2.21875 L 10.90625 -21.078125 L 15.265625 -21.078125 C 16.84375 -21.078125 17.265625 -17.671875 18.171875 -17.671875 L 18.484375 -17.671875 C 18.78125 -17.671875 18.96875 -17.859375 18.875 -18.265625 L 18.171875 -21.75 C 18.078125 -22.1875 17.859375 -22.4375 17.359375 -22.4375 L 1.640625 -22.4375 C 1.140625 -22.4375 0.921875 -22.1875 0.859375 -21.75 L 0.34375 -18.296875 C 0.28125 -17.859375 0.4375 -17.671875 0.765625 -17.671875 L 1.046875 -17.671875 C 1.953125 -17.671875 2.15625 -21.078125 3.765625 -21.078125 L 8.0625 -21.078125 L 8.0625 -2.21875 C 8.0625 -1.078125 6.890625 -1.046875 6.890625 -0.4375 L 6.890625 -0.375 C 6.890625 -0.125 7.140625 0 7.515625 0 Z M 7.515625 0 "/></g></g></g><g fill="#ffffff" fill-opacity="1"><g transform="translate(162.028802, 26.15)"><g><path d="M 2.53125 0 L 16.75 0 C 17.265625 0 17.484375 -0.25 17.578125 -0.734375 L 18.328125 -3.921875 C 18.390625 -4.265625 18.234375 -4.546875 17.953125 -4.546875 L 17.765625 -4.546875 C 16.65625 -4.546875 16.125 -1.296875 14.453125 -1.296875 L 7.015625 -1.296875 C 6.234375 -1.296875 5.84375 -1.921875 5.84375 -2.65625 L 5.875 -10.84375 L 11.625 -10.84375 C 12.828125 -10.84375 12.796875 -9.046875 13.46875 -9.046875 L 13.59375 -9.046875 C 13.84375 -9.046875 14 -9.265625 14 -9.578125 L 14 -13.46875 C 14 -13.8125 13.84375 -14 13.59375 -14 L 13.46875 -14 C 12.796875 -14 12.828125 -12.140625 11.625 -12.140625 L 5.875 -12.140625 L 5.875 -20.078125 C 5.875 -20.828125 6.203125 -21.140625 6.765625 -21.140625 L 13.46875 -21.140625 C 15.109375 -21.140625 15.875 -17.984375 16.84375 -17.984375 L 17 -17.984375 C 17.328125 -17.984375 17.484375 -18.171875 17.390625 -18.625 L 16.625 -21.75 C 16.53125 -22.1875 16.34375 -22.4375 15.84375 -22.4375 L 2.4375 -22.4375 C 2.09375 -22.4375 1.859375 -22.3125 1.859375 -22.09375 L 1.859375 -22 C 1.859375 -21.4375 3.03125 -21.40625 3.03125 -20.203125 L 3.03125 -2.25 C 3.03125 -1.046875 1.859375 -1.046875 1.859375 -0.4375 L 1.859375 -0.375 C 1.859375 -0.125 2.15625 0 2.53125 0 Z M 2.53125 0 "/></g></g></g><g fill="#ffffff" fill-opacity="1"><g transform="translate(193.639532, 26.15)"><g><path d="M 21.375 -22.4375 L 18.484375 -22.4375 C 18.078125 -22.4375 17.828125 -22.28125 17.828125 -22.03125 L 17.828125 -21.96875 C 17.828125 -21.40625 19.125 -21.375 19.125 -20.234375 L 19.125 -3.671875 L 6 -21.8125 C 5.71875 -22.21875 5.375 -22.4375 4.875 -22.4375 L 2.46875 -22.4375 C 2.046875 -22.4375 1.828125 -22.28125 1.828125 -22.03125 L 1.828125 -21.90625 C 1.828125 -21.296875 3.03125 -21.296875 3.03125 -20.203125 L 3.03125 -2.3125 C 3.03125 -1.140625 1.828125 -1.046875 1.828125 -0.4375 L 1.828125 -0.375 C 1.828125 -0.125 2.046875 0 2.46875 0 L 5.34375 0 C 5.71875 0 6 -0.125 6 -0.375 L 6 -0.4375 C 6 -1.046875 4.640625 -1.140625 4.640625 -2.3125 L 4.640625 -19.21875 L 18.140625 -0.828125 C 18.546875 -0.1875 18.84375 0 19.15625 0 L 19.953125 0 C 20.453125 0 20.734375 -0.3125 20.734375 -0.859375 L 20.734375 -20.234375 C 20.734375 -21.375 22 -21.40625 22 -21.96875 L 22 -22.03125 C 22 -22.28125 21.75 -22.4375 21.375 -22.4375 Z M 21.375 -22.4375 "/></g></g></g><g fill="#ffffff" fill-opacity="1"><g transform="translate(27.335422, 70.399996)"><g><path d="M 2.53125 0 L 6.484375 0 C 6.859375 0 7.109375 -0.125 7.109375 -0.375 L 7.109375 -0.4375 C 7.109375 -1.046875 5.90625 -1.078125 5.90625 -2.21875 L 5.90625 -10.75 L 18.296875 -10.75 L 18.265625 -2.21875 C 18.265625 -1.078125 17.125 -1.046875 17.125 -0.4375 L 17.125 -0.375 C 17.125 -0.125 17.390625 0 17.765625 0 L 21.71875 0 C 22.125 0 22.375 -0.125 22.375 -0.375 L 22.375 -0.4375 C 22.375 -1.046875 21.140625 -1.078125 21.140625 -2.21875 L 21.140625 -20.234375 C 21.140625 -21.375 22.375 -21.40625 22.375 -22 L 22.375 -22.0625 C 22.375 -22.3125 22.125 -22.4375 21.71875 -22.4375 L 17.765625 -22.4375 C 17.390625 -22.4375 17.125 -22.3125 17.125 -22.0625 L 17.125 -22 C 17.125 -21.40625 18.265625 -21.375 18.265625 -20.234375 L 18.296875 -12.140625 L 5.875 -12.140625 L 5.90625 -20.234375 C 5.90625 -21.375 7.109375 -21.40625 7.109375 -22 L 7.109375 -22.0625 C 7.109375 -22.3125 6.859375 -22.4375 6.484375 -22.4375 L 2.53125 -22.4375 C 2.15625 -22.4375 1.890625 -22.3125 1.890625 -22.0625 L 1.890625 -22 C 1.890625 -21.40625 3.03125 -21.375 3.03125 -20.234375 L 3.03125 -2.21875 C 3.03125 -1.078125 1.890625 -1.046875 1.890625 -0.4375 L 1.890625 -0.375 C 1.890625 -0.125 2.15625 0 2.53125 0 Z M 2.53125 0 "/></g></g></g><g fill="#ffffff" fill-opacity="1"><g transform="translate(64.224268, 70.399996)"><g><path d="M 11.59375 0.3125 C 16.5625 0.3125 20.046875 -3.21875 20.046875 -8.6875 L 20.046875 -20.234375 C 20.046875 -21.34375 21.34375 -21.40625 21.34375 -21.96875 L 21.34375 -22.0625 C 21.34375 -22.3125 21.046875 -22.4375 20.671875 -22.4375 L 17.890625 -22.4375 C 17.515625 -22.4375 17.234375 -22.3125 17.234375 -22.0625 L 17.234375 -21.96875 C 17.234375 -21.40625 18.421875 -21.34375 18.421875 -20.234375 L 18.421875 -8.71875 C 18.421875 -3.703125 15.453125 -1.046875 12.140625 -1.046875 C 8.1875 -1.046875 5.5625 -4.046875 5.5625 -8.71875 L 5.5625 -20.234375 C 5.5625 -21.34375 6.765625 -21.40625 6.765625 -21.96875 L 6.765625 -22.0625 C 6.765625 -22.3125 6.515625 -22.4375 6.125 -22.4375 L 2.15625 -22.4375 C 1.765625 -22.4375 1.515625 -22.3125 1.515625 -22.0625 L 1.515625 -21.96875 C 1.515625 -21.40625 2.65625 -21.34375 2.65625 -20.234375 L 2.65625 -8.71875 C 2.65625 -3.21875 6.328125 0.3125 11.59375 0.3125 Z M 11.59375 0.3125 "/></g></g></g><g fill="#ffffff" fill-opacity="1"><g transform="translate(99.59605, 70.399996)"><g><path d="M 9.953125 0.3125 C 14.375 0.3125 18.046875 -2.015625 18.046875 -5.8125 C 18.046875 -15.359375 4.515625 -9.859375 4.515625 -17.234375 C 4.515625 -19.625 6.234375 -21.5 9.421875 -21.5 C 15.234375 -21.5 14.03125 -16.3125 16.40625 -16.3125 C 17.265625 -16.3125 17.703125 -16.8125 17.703125 -17.578125 C 17.703125 -19.75 14.890625 -22.734375 9.515625 -22.734375 C 4.484375 -22.734375 1.640625 -20.078125 1.640625 -16.5625 C 1.640625 -7.078125 15.140625 -13.015625 15.140625 -5.15625 C 15.140625 -2.65625 13.09375 -0.921875 10.078125 -0.921875 C 3.734375 -0.921875 4.515625 -6.421875 2.25 -6.515625 C 1.453125 -6.515625 1.046875 -5.96875 1.046875 -5.25 C 1.046875 -3.3125 3.765625 0.3125 9.953125 0.3125 Z M 9.953125 0.3125 "/></g></g></g><g fill="#ffffff" fill-opacity="1"><g transform="translate(131.396403, 70.399996)"><g><path d="M 2.53125 0 L 16.75 0 C 17.265625 0 17.484375 -0.25 17.578125 -0.734375 L 18.328125 -3.921875 C 18.390625 -4.265625 18.234375 -4.546875 17.953125 -4.546875 L 17.765625 -4.546875 C 16.65625 -4.546875 16.125 -1.296875 14.453125 -1.296875 L 7.015625 -1.296875 C 6.234375 -1.296875 5.84375 -1.921875 5.84375 -2.65625 L 5.875 -10.84375 L 11.625 -10.84375 C 12.828125 -10.84375 12.796875 -9.046875 13.46875 -9.046875 L 13.59375 -9.046875 C 13.84375 -9.046875 14 -9.265625 14 -9.578125 L 14 -13.46875 C 14 -13.8125 13.84375 -14 13.59375 -14 L 13.46875 -14 C 12.796875 -14 12.828125 -12.140625 11.625 -12.140625 L 5.875 -12.140625 L 5.875 -20.078125 C 5.875 -20.828125 6.203125 -21.140625 6.765625 -21.140625 L 13.46875 -21.140625 C 15.109375 -21.140625 15.875 -17.984375 16.84375 -17.984375 L 17 -17.984375 C 17.328125 -17.984375 17.484375 -18.171875 17.390625 -18.625 L 16.625 -21.75 C 16.53125 -22.1875 16.34375 -22.4375 15.84375 -22.4375 L 2.4375 -22.4375 C 2.09375 -22.4375 1.859375 -22.3125 1.859375 -22.09375 L 1.859375 -22 C 1.859375 -21.4375 3.03125 -21.40625 3.03125 -20.203125 L 3.03125 -2.25 C 3.03125 -1.046875 1.859375 -1.046875 1.859375 -0.4375 L 1.859375 -0.375 C 1.859375 -0.125 2.15625 0 2.53125 0 Z M 2.53125 0 "/></g></g></g><g fill="#ffffff" fill-opacity="1"><g transform="translate(163.007134, 70.399996)"><g><path d="M 19.953125 -22.4375 L 16.84375 -22.4375 C 16.46875 -22.4375 16.28125 -22.3125 16.28125 -22.0625 L 16.28125 -22 C 16.28125 -21.40625 18.015625 -21.375 17.359375 -20.234375 L 11.1875 -10.078125 L 5.03125 -20.234375 C 4.421875 -21.265625 6 -21.40625 6 -22 L 6 -22.0625 C 6 -22.3125 5.78125 -22.4375 5.375 -22.4375 L 0.765625 -22.4375 C 0.375 -22.4375 0.125 -22.3125 0.125 -22.0625 L 0.125 -22 C 0.125 -21.40625 1.171875 -21.34375 1.859375 -20.234375 L 9.203125 -8.875 L 9.203125 -2.21875 C 9.203125 -1.078125 8.0625 -1.046875 8.0625 -0.4375 L 8.0625 -0.375 C 8.0625 -0.125 8.28125 0 8.6875 0 L 12.671875 0 C 13.046875 0 13.28125 -0.125 13.28125 -0.375 L 13.28125 -0.4375 C 13.28125 -1.046875 12.078125 -1.078125 12.078125 -2.21875 L 12.078125 -9.078125 L 18.90625 -20.234375 C 19.625 -21.5 20.578125 -21.40625 20.578125 -22 L 20.578125 -22.09375 C 20.578125 -22.3125 20.359375 -22.4375 19.953125 -22.4375 Z M 19.953125 -22.4375 "/></g></g></g><g fill="#ffffff" fill-opacity="1"><g transform="translate(196.514195, 70.399996)"><g><path d="M 21.375 -22.4375 L 18.484375 -22.4375 C 18.078125 -22.4375 17.828125 -22.28125 17.828125 -22.03125 L 17.828125 -21.96875 C 17.828125 -21.40625 19.125 -21.375 19.125 -20.234375 L 19.125 -3.671875 L 6 -21.8125 C 5.71875 -22.21875 5.375 -22.4375 4.875 -22.4375 L 2.46875 -22.4375 C 2.046875 -22.4375 1.828125 -22.28125 1.828125 -22.03125 L 1.828125 -21.90625 C 1.828125 -21.296875 3.03125 -21.296875 3.03125 -20.203125 L 3.03125 -2.3125 C 3.03125 -1.140625 1.828125 -1.046875 1.828125 -0.4375 L 1.828125 -0.375 C 1.828125 -0.125 2.046875 0 2.46875 0 L 5.34375 0 C 5.71875 0 6 -0.125 6 -0.375 L 6 -0.4375 C 6 -1.046875 4.640625 -1.140625 4.640625 -2.3125 L 4.640625 -19.21875 L 18.140625 -0.828125 C 18.546875 -0.1875 18.84375 0 19.15625 0 L 19.953125 0 C 20.453125 0 20.734375 -0.3125 20.734375 -0.859375 L 20.734375 -20.234375 C 20.734375 -21.375 22 -21.40625 22 -21.96875 L 22 -22.03125 C 22 -22.28125 21.75 -22.4375 21.375 -22.4375 Z M 21.375 -22.4375 "/></g></g></g><g fill="#ffffff" fill-opacity="1"><g transform="translate(232.865755, 70.399996)"><g><path d="M 2.53125 0 L 16.28125 0 C 16.75 0 16.96875 -0.25 17.0625 -0.734375 L 17.859375 -4.203125 C 17.953125 -4.578125 17.796875 -4.765625 17.515625 -4.765625 L 17.265625 -4.765625 C 16.15625 -4.765625 15.765625 -1.296875 13.9375 -1.296875 L 6.921875 -1.296875 C 6.265625 -1.296875 5.90625 -1.796875 5.90625 -2.53125 L 5.90625 -20.234375 C 5.90625 -21.40625 7.140625 -21.375 7.140625 -22 L 7.140625 -22.0625 C 7.140625 -22.3125 6.890625 -22.4375 6.515625 -22.4375 L 2.53125 -22.4375 C 2.15625 -22.4375 1.890625 -22.3125 1.890625 -22.0625 L 1.890625 -22 C 1.890625 -21.375 3.03125 -21.40625 3.03125 -20.234375 L 3.03125 -2.21875 C 3.03125 -1.109375 1.890625 -1.046875 1.890625 -0.4375 L 1.890625 -0.375 C 1.890625 -0.15625 2.15625 0 2.53125 0 Z M 2.53125 0 "/></g></g></g><g fill="#ffffff" fill-opacity="1"><g transform="translate(263.686339, 70.399996)"><g><path d="M 1.890625 -0.375 C 1.890625 -0.125 2.15625 0 2.53125 0 L 6.484375 0 C 6.859375 0 7.109375 -0.125 7.109375 -0.375 L 7.109375 -0.4375 C 7.109375 -1.015625 5.90625 -1.046875 5.90625 -2.1875 L 5.90625 -20.234375 C 5.90625 -21.375 7.109375 -21.40625 7.109375 -22 L 7.109375 -22.0625 C 7.109375 -22.3125 6.859375 -22.4375 6.484375 -22.4375 L 2.53125 -22.4375 C 2.15625 -22.4375 1.890625 -22.3125 1.890625 -22.0625 L 1.890625 -22 C 1.890625 -21.40625 3.03125 -21.375 3.03125 -20.234375 L 3.03125 -2.1875 C 3.03125 -1.046875 1.890625 -1.015625 1.890625 -0.4375 Z M 1.890625 -0.375 "/></g></g></g></svg>